<svg width="700" height="668" viewBox="0 0 700 668" fill="none" xmlns="http://www.w3.org/2000/svg">
<path d="M445.774 211.082L268.542 276.732C263.363 278.651 260.72 284.404 262.639 289.583L349.13 523.079C351.048 528.258 356.802 530.901 361.981 528.983L539.212 463.333C544.391 461.414 547.034 455.661 545.116 450.482L458.625 216.986C456.707 211.807 450.953 209.164 445.774 211.082Z" stroke="black" stroke-width="20"/>
<path d="M278.443 332.25L476.305 258.958" stroke="black" stroke-width="20"/>
<path d="M442.788 211.655C465.858 203.11 485.612 125.318 412.183 135.103C407.323 135.751 402.534 133.141 400.22 128.819C389.241 108.314 362.225 80.4696 317.455 90.6561C271.932 101.014 258.276 139.41 256.502 162.91C256.169 167.321 253.446 171.276 249.377 173.014C227.844 182.209 197.468 203.702 208.143 234.588C219.748 268.162 247.263 341.22 260.5 376.002C261.135 377.67 261.291 379.452 261.053 381.222C257.699 406.209 264.417 446.143 316.93 424.634" stroke="black" stroke-width="20"/>
<path d="M458.782 221.727C481.6 208.476 531.091 192.383 546.514 234.018C561.937 275.654 575.981 313.569 581.076 327.323C589.065 348.891 589.448 367.198 520.958 389.582" stroke="black" stroke-width="20"/>
<path d="M331.6 313.093L406.975 516.582" stroke="black" stroke-width="20"/>
<path d="M378.243 297.948L453.619 501.437" stroke="black" stroke-width="20"/>
<path d="M424.192 280.928L499.568 484.416" stroke="black" stroke-width="20"/>
<circle cx="206.405" cy="490.856" r="30.5" transform="rotate(145.795 206.405 490.856)" stroke="black" stroke-width="20"/>
<circle cx="216.304" cy="407.3" r="18.5" transform="rotate(92.5314 216.304 407.3)" stroke="black" stroke-width="10"/>
<circle cx="170.241" cy="360.241" r="9.8168" transform="rotate(92.5314 170.241 360.241)" stroke="black" stroke-width="5"/>
<circle cx="207.241" cy="286.241" r="9.8168" transform="rotate(92.5314 207.241 286.241)" stroke="black" stroke-width="5"/>
<circle cx="149.111" cy="519.524" r="22" transform="rotate(145.795 149.111 519.524)" stroke="black" stroke-width="15"/>
</svg>
