<svg width="13" height="15" viewBox="0 0 13 15" fill="none" xmlns="http://www.w3.org/2000/svg">
<path d="M0.375 13.4375C0.375 14.1758 0.949219 14.75 1.6875 14.75H11.3125C12.0234 14.75 12.625 14.1758 12.625 13.4375V6H0.375V13.4375ZM2.125 8.1875C2.125 7.96875 2.31641 7.75 2.5625 7.75H5.1875C5.40625 7.75 5.625 7.96875 5.625 8.1875V10.8125C5.625 11.0586 5.40625 11.25 5.1875 11.25H2.5625C2.31641 11.25 2.125 11.0586 2.125 10.8125V8.1875ZM11.3125 2.5H10V1.1875C10 0.96875 9.78125 0.75 9.5625 0.75H8.6875C8.44141 0.75 8.25 0.96875 8.25 1.1875V2.5H4.75V1.1875C4.75 0.96875 4.53125 0.75 4.3125 0.75H3.4375C3.19141 0.75 3 0.96875 3 1.1875V2.5H1.6875C0.949219 2.5 0.375 3.10156 0.375 3.8125V5.125H12.625V3.8125C12.625 3.10156 12.0234 2.5 11.3125 2.5Z" fill="#FAFAFA"/>
</svg>
