<svg width="140" height="140" viewBox="0 0 140 140" fill="none" xmlns="http://www.w3.org/2000/svg">
<path d="M47.8501 65.2498C50.1575 65.2498 52.3704 64.3332 54.002 62.7017C55.6335 61.0701 56.5501 58.8572 56.5501 56.5499C56.5501 54.2425 55.6335 52.0296 54.002 50.398C52.3704 48.7665 50.1575 47.8499 47.8501 47.8499C45.5428 47.8499 43.3299 48.7665 41.6983 50.398C40.0668 52.0296 39.1501 54.2425 39.1501 56.5499C39.1501 58.8572 40.0668 61.0701 41.6983 62.7017C43.3299 64.3332 45.5428 65.2498 47.8501 65.2498Z" fill="#433C34"/>
<path d="M100.05 56.5499C100.05 58.8572 99.1335 61.0701 97.502 62.7017C95.8704 64.3332 93.6575 65.2498 91.3501 65.2498C89.0428 65.2498 86.8299 64.3332 85.1983 62.7017C83.5668 61.0701 82.6501 58.8572 82.6501 56.5499C82.6501 54.2425 83.5668 52.0296 85.1983 50.398C86.8299 48.7665 89.0428 47.8499 91.3501 47.8499C93.6575 47.8499 95.8704 48.7665 97.502 50.398C99.1335 52.0296 100.05 54.2425 100.05 56.5499V56.5499Z" fill="#433C34"/>
<path d="M100.589 99.0928C99.6932 99.809 98.5505 100.142 97.4099 100.02C96.2694 99.8979 95.2232 99.3301 94.4993 98.4403L94.4732 98.4142C94.0963 97.997 93.6985 97.5992 93.2813 97.2223C91.9248 96.0014 90.4468 94.9228 88.8704 94.0034C84.8597 91.6544 78.5435 89.1749 69.6173 89.1749C60.6911 89.1749 54.3662 91.6456 50.3381 94.012C48.7592 94.932 47.2784 96.0105 45.9185 97.231C45.4984 97.6078 45.0977 98.0056 44.7179 98.4229L44.6918 98.449C44.3319 98.8929 43.8881 99.2615 43.3857 99.5339C42.8834 99.8062 42.3323 99.977 41.764 100.036C41.1956 100.096 40.6212 100.043 40.0734 99.88C39.5256 99.7173 39.0152 99.4484 38.5713 99.0885C38.1275 98.7286 37.7588 98.2848 37.4865 97.7825C37.2141 97.2801 37.0434 96.729 36.984 96.1607C36.9246 95.5924 36.9778 95.0179 37.1404 94.4701C37.303 93.9223 37.572 93.4119 37.9319 92.968L41.3249 95.6998L37.9319 92.9768V92.968L37.9493 92.9594L37.9667 92.9419L38.0102 92.8897L38.132 92.7332L38.5583 92.2633C38.9063 91.8892 39.4109 91.376 40.0721 90.7844C41.3945 89.5838 43.3346 88.0352 45.9359 86.5127C51.1559 83.4416 58.9859 80.4749 69.6173 80.4749C80.24 80.4749 88.0613 83.4329 93.2813 86.5127C95.8913 88.0439 97.8227 89.5838 99.1364 90.7757C99.8154 91.3955 100.46 92.0518 101.068 92.7418L101.198 92.8897L101.242 92.9419L101.259 92.968C101.259 92.968 101.268 92.9854 97.8749 95.6998L101.268 92.9854C101.987 93.8858 102.319 95.0345 102.191 96.1795C102.064 97.3244 101.488 98.3722 100.589 99.0928V99.0928Z" fill="#433C34"/>
<path d="M69.6 0C51.1409 0 33.4379 7.33283 20.3854 20.3854C7.33283 33.4379 0 51.1409 0 69.6C0 88.059 7.33283 105.762 20.3854 118.815C33.4379 131.867 51.1409 139.2 69.6 139.2C88.059 139.2 105.762 131.867 118.815 118.815C131.867 105.762 139.2 88.059 139.2 69.6C139.2 51.1409 131.867 33.4379 118.815 20.3854C105.762 7.33283 88.059 0 69.6 0V0ZM8.7 69.6C8.7 61.6025 10.2752 53.6833 13.3357 46.2946C16.3962 38.9058 20.8821 32.1923 26.5372 26.5372C32.1923 20.8821 38.9058 16.3962 46.2946 13.3357C53.6833 10.2752 61.6025 8.7 69.6 8.7C77.5975 8.7 85.5167 10.2752 92.9054 13.3357C100.294 16.3962 107.008 20.8821 112.663 26.5372C118.318 32.1923 122.804 38.9058 125.864 46.2946C128.925 53.6833 130.5 61.6025 130.5 69.6C130.5 85.7517 124.084 101.242 112.663 112.663C101.242 124.084 85.7517 130.5 69.6 130.5C53.4483 130.5 37.9581 124.084 26.5372 112.663C15.1162 101.242 8.7 85.7517 8.7 69.6Z" fill="#433C34"/>
<path d="M104.202 63.6681C100.472 70.6531 95.2496 84.7783 104.202 85.3992C113.155 86.0201 107.932 71.1705 104.202 63.6681Z" fill="#433C34"/>
</svg>
