<svg width="22" height="23" viewBox="0 0 22 23" fill="none" xmlns="http://www.w3.org/2000/svg">
<path d="M11 6.00977C7.875 6.00977 5.38477 8.54883 5.38477 11.625C5.38477 14.75 7.875 17.2402 11 17.2402C14.0762 17.2402 16.6152 14.75 16.6152 11.625C16.6152 8.54883 14.0762 6.00977 11 6.00977ZM11 15.2871C8.99805 15.2871 7.33789 13.6758 7.33789 11.625C7.33789 9.62305 8.94922 8.01172 11 8.01172C13.002 8.01172 14.6133 9.62305 14.6133 11.625C14.6133 13.6758 13.002 15.2871 11 15.2871ZM18.1289 5.81445C18.1289 5.08203 17.543 4.49609 16.8105 4.49609C16.0781 4.49609 15.4922 5.08203 15.4922 5.81445C15.4922 6.54688 16.0781 7.13281 16.8105 7.13281C17.543 7.13281 18.1289 6.54688 18.1289 5.81445ZM21.8398 7.13281C21.7422 5.375 21.3516 3.8125 20.082 2.54297C18.8125 1.27344 17.25 0.882812 15.4922 0.785156C13.6855 0.6875 8.26562 0.6875 6.45898 0.785156C4.70117 0.882812 3.1875 1.27344 1.86914 2.54297C0.599609 3.8125 0.208984 5.375 0.111328 7.13281C0.0136719 8.93945 0.0136719 14.3594 0.111328 16.166C0.208984 17.9238 0.599609 19.4375 1.86914 20.7559C3.1875 22.0254 4.70117 22.416 6.45898 22.5137C8.26562 22.6113 13.6855 22.6113 15.4922 22.5137C17.25 22.416 18.8125 22.0254 20.082 20.7559C21.3516 19.4375 21.7422 17.9238 21.8398 16.166C21.9375 14.3594 21.9375 8.93945 21.8398 7.13281ZM19.4961 18.0703C19.1543 19.0469 18.373 19.7793 17.4453 20.1699C15.9805 20.7559 12.5625 20.6094 11 20.6094C9.38867 20.6094 5.9707 20.7559 4.55469 20.1699C3.57812 19.7793 2.8457 19.0469 2.45508 18.0703C1.86914 16.6543 2.01562 13.2363 2.01562 11.625C2.01562 10.0625 1.86914 6.64453 2.45508 5.17969C2.8457 4.25195 3.57812 3.51953 4.55469 3.12891C5.9707 2.54297 9.38867 2.68945 11 2.68945C12.5625 2.68945 15.9805 2.54297 17.4453 3.12891C18.373 3.4707 19.1055 4.25195 19.4961 5.17969C20.082 6.64453 19.9355 10.0625 19.9355 11.625C19.9355 13.2363 20.082 16.6543 19.4961 18.0703Z" fill="white"/>
</svg>
