<svg xmlns="http://www.w3.org/2000/svg"><symbol id="icon-calendrier" viewBox="0 0 13 15"><path d="M.375 13.438c0 .738.574 1.312 1.313 1.312h9.624c.711 0 1.313-.574 1.313-1.313V6H.375v7.438zm1.75-5.25a.45.45 0 01.438-.438h2.624a.47.47 0 01.438.438v2.624a.45.45 0 01-.438.438H2.563a.432.432 0 01-.437-.438V8.188zM11.313 2.5H10V1.187A.47.47 0 009.562.75h-.874a.45.45 0 00-.438.438V2.5h-3.5V1.187A.47.47 0 004.312.75h-.875A.45.45 0 003 1.188V2.5H1.687C.95 2.5.375 3.102.375 3.813v1.312h12.25V3.812A1.33 1.33 0 0011.312 2.5z"/></symbol><symbol id="icon-close" viewBox="0 0 24 24"><path d="M12 22A9.99 9.99 0 012 12v-.2a10.005 10.005 0 0117.074-6.874A10 10 0 0112 22zm0-8.59L14.59 16 16 14.59 13.41 12 16 9.41 14.59 8 12 10.59 9.41 8 8 9.41 10.59 12 8 14.59 9.41 16 12 13.411v-.001z"/></symbol><symbol class="svg-inline--fa fa-chevron-down fa-w-14" id="icon-dropdown" viewBox="0 0 448 512"><path d="M207.029 381.476L12.686 187.132c-9.373-9.373-9.373-24.569 0-33.941l22.667-22.667c9.357-9.357 24.522-9.375 33.901-.04L224 284.505l154.745-154.021c9.379-9.335 24.544-9.317 33.901.04l22.667 22.667c9.373 9.373 9.373 24.569 0 33.941L240.971 381.476c-9.373 9.372-24.569 9.372-33.942 0z"/></symbol><symbol id="icon-emoji" viewBox="0 0 140 140"><path d="M47.85 65.25a8.7 8.7 0 100-17.401 8.7 8.7 0 000 17.4zm52.2-8.7a8.7 8.7 0 11-17.4 0 8.7 8.7 0 0117.4 0zm.539 42.543a4.35 4.35 0 01-6.09-.653l-.026-.026a16.628 16.628 0 00-1.192-1.192 26.704 26.704 0 00-4.41-3.219c-4.011-2.349-10.328-4.828-19.254-4.828-8.926 0-15.25 2.47-19.279 4.837a26.87 26.87 0 00-4.42 3.219c-.42.377-.82.775-1.2 1.192l-.026.026a4.352 4.352 0 11-6.76-5.481l3.393 2.732-3.393-2.723v-.009l.017-.009.018-.017.043-.052.122-.157.426-.47c.348-.374.853-.887 1.514-1.479 1.322-1.2 3.263-2.749 5.864-4.271 5.22-3.071 13.05-6.038 23.681-6.038 10.623 0 18.444 2.958 23.664 6.038 2.61 1.53 4.542 3.07 5.855 4.263a25.38 25.38 0 011.932 1.966l.13.148.044.052.017.026s.009.017-3.384 2.732l3.393-2.715a4.348 4.348 0 01-.679 6.107z"/><path d="M69.6 0a69.6 69.6 0 100 139.2A69.6 69.6 0 0069.6 0zM8.7 69.6a60.9 60.9 0 11121.8 0 60.9 60.9 0 01-121.8 0z"/><path d="M104.202 63.668c-3.73 6.985-8.952 21.11 0 21.731 8.953.621 3.73-14.228 0-21.73z"/></symbol><symbol id="icon-facebook" viewBox="0 0 12 23"><path d="M11.113 13.125l.602-3.953H7.89V6.594c0-1.117.515-2.149 2.234-2.149h1.762V1.051S10.297.75 8.793.75c-3.137 0-5.2 1.934-5.2 5.371v3.05H.07v3.954h3.524v9.625H7.89v-9.625h3.222z"/></symbol><symbol id="icon-instagram" viewBox="0 0 22 23"><path d="M11 6.01a5.616 5.616 0 00-5.615 5.615A5.585 5.585 0 0011 17.24a5.616 5.616 0 005.615-5.615c0-3.076-2.539-5.615-5.615-5.615zm0 9.277a3.657 3.657 0 01-3.662-3.662c0-2.002 1.611-3.613 3.662-3.613a3.605 3.605 0 013.613 3.613c0 2.05-1.611 3.662-3.613 3.662zm7.129-9.473c0-.732-.586-1.318-1.319-1.318-.732 0-1.318.586-1.318 1.318 0 .733.586 1.319 1.319 1.319.732 0 1.318-.586 1.318-1.319zm3.71 1.319c-.097-1.758-.487-3.32-1.757-4.59S17.25.883 15.492.785C13.685.687 8.266.687 6.46.785c-1.758.098-3.271.488-4.59 1.758C.6 3.813.21 5.375.111 7.133c-.097 1.806-.097 7.226 0 9.033.098 1.758.489 3.271 1.758 4.59 1.319 1.27 2.832 1.66 4.59 1.758 1.807.097 7.226.097 9.033 0 1.758-.098 3.32-.489 4.59-1.758 1.27-1.319 1.66-2.832 1.758-4.59.098-1.807.098-7.227 0-9.033zM19.497 18.07c-.342.977-1.123 1.71-2.05 2.1-1.466.586-4.884.44-6.446.44-1.611 0-5.03.146-6.445-.44a3.702 3.702 0 01-2.1-2.1c-.586-1.416-.44-4.834-.44-6.445 0-1.563-.146-4.98.44-6.445a3.766 3.766 0 012.1-2.051c1.416-.586 4.834-.44 6.445-.44 1.563 0 4.98-.146 6.445.44.928.342 1.66 1.123 2.051 2.05.586 1.466.44 4.883.44 6.446 0 1.611.146 5.03-.44 6.445z"/></symbol></svg>